<?xml version="1.0" standalone="no"?><svg xmlns="http://www.w3.org/2000/svg" viewBox="0 0 1440 320"><path fill="#d83a7c" fill-opacity="1" d="M0,64L34.3,74.7C68.6,85,137,107,206,128C274.3,149,343,171,411,192C480,213,549,235,617,208C685.7,181,754,107,823,90.7C891.4,75,960,117,1029,138.7C1097.1,160,1166,160,1234,170.7C1302.9,181,1371,203,1406,213.3L1440,224L1440,320L1405.7,320C1371.4,320,1303,320,1234,320C1165.7,320,1097,320,1029,320C960,320,891,320,823,320C754.3,320,686,320,617,320C548.6,320,480,320,411,320C342.9,320,274,320,206,320C137.1,320,69,320,34,320L0,320Z" style="--darkreader-inline-fill: #972354;" data-darkreader-inline-fill=""></path></svg>